<?xml version="1.0" standalone="no"?>
<!DOCTYPE svg PUBLIC "-//W3C//DTD SVG 20010904//EN"
 "http://www.w3.org/TR/2001/REC-SVG-20010904/DTD/svg10.dtd">
<svg version="1.0" xmlns="http://www.w3.org/2000/svg"
 width="517.000000pt" height="517.000000pt" viewBox="0 0 517.000000 517.000000"
 preserveAspectRatio="xMidYMid meet">
<metadata>
Created by potrace 1.11, written by Peter Selinger 2001-2013
</metadata>
<g transform="translate(0.000000,517.000000) scale(0.100000,-0.100000)"
fill="#000000" stroke="none">
<path d="M0 2585 l0 -2585 2585 0 2585 0 0 2585 0 2585 -2585 0 -2585 0 0
-2585z m2880 1935 c273 -56 504 -182 711 -389 203 -204 333 -451 385 -733 26
-140 24 -382 -5 -518 -119 -561 -537 -983 -1091 -1101 -137 -29 -388 -32 -527
-6 -189 35 -378 112 -543 222 -107 71 -293 260 -369 373 -223 338 -291 721
-196 1117 37 159 110 320 208 465 70 102 253 282 358 352 206 138 380 201 664
242 71 10 305 -4 405 -24z m1430 10 c11 -11 20 -30 20 -43 0 -43 31 -114 63
-145 33 -32 102 -62 143 -62 30 0 64 -33 64 -62 0 -33 -38 -68 -74 -68 -97 -1
-196 -105 -196 -206 0 -28 -33 -56 -67 -56 -36 0 -59 30 -67 89 -11 89 -77
155 -166 169 -59 9 -79 20 -90 50 -16 40 13 83 55 84 102 1 204 100 205 198 0
39 30 72 65 72 14 0 34 -9 45 -20z m-3326 -144 c8 -11 17 -41 20 -66 13 -87
78 -153 166 -166 59 -9 79 -20 90 -50 16 -40 -13 -83 -55 -84 -100 -1 -204
-100 -205 -194 0 -36 -35 -76 -67 -76 -30 0 -63 33 -63 64 0 41 -30 110 -62
143 -31 32 -102 63 -145 63 -29 0 -63 33 -63 62 0 33 38 68 74 68 96 1 195
104 196 205 0 28 11 42 40 53 32 12 58 4 74 -22z m17 -1472 c60 -33 94 -71
125 -139 19 -41 32 -126 73 -470 28 -231 53 -435 56 -452 6 -32 7 -33 58 -33
29 0 70 -9 93 -19 23 -11 178 -106 344 -211 218 -139 304 -199 311 -218 6 -15
9 -178 7 -404 l-3 -380 -24 -19 c-22 -18 -44 -19 -375 -19 -288 0 -356 3 -372
14 -14 11 -20 30 -24 82 l-5 68 -225 137 c-124 75 -244 155 -267 177 -55 52
-115 146 -144 225 l-24 62 -3 679 c-3 750 -4 736 60 832 80 118 217 154 339
88z m3426 10 c56 -27 119 -97 145 -162 l23 -57 3 -657 c3 -724 2 -737 -58
-864 -56 -117 -125 -178 -380 -333 l-225 -137 -5 -68 c-4 -52 -10 -71 -24 -82
-16 -11 -84 -14 -373 -14 l-354 0 -24 25 -25 24 0 381 c0 233 4 389 10 400 11
20 585 390 654 421 23 10 64 19 93 19 51 0 52 1 58 33 3 17 28 221 55 452 28
231 55 434 61 452 24 74 99 147 186 179 47 18 128 12 180 -12z"/>
<path d="M2460 4409 c-36 -4 -99 -16 -140 -25 -77 -17 -248 -78 -264 -95 -6
-5 60 -9 177 -9 202 0 225 -4 285 -55 104 -87 104 -263 0 -350 -57 -49 -86
-55 -242 -55 -157 0 -193 -8 -202 -47 -16 -64 20 -93 117 -93 186 0 277 -201
151 -333 -60 -64 -43 -62 -544 -65 l-457 -3 -7 -55 c-8 -68 2 -213 22 -314
144 -718 856 -1167 1559 -985 119 31 252 88 363 156 120 74 317 271 391 391
43 71 131 254 131 273 0 3 -125 5 -277 5 -161 0 -294 4 -315 10 -75 21 -130
91 -141 179 -7 59 -25 73 -101 82 -116 14 -209 78 -263 182 -25 46 -28 63 -28
147 0 84 3 101 28 147 34 67 84 116 150 150 50 26 60 28 242 33 105 3 198 9
208 14 21 10 31 47 23 80 -6 25 -38 41 -99 50 -44 6 -95 41 -129 88 -19 27
-23 46 -23 104 0 60 4 76 28 113 28 41 79 73 141 86 l30 6 -50 29 c-217 128
-518 191 -764 159z m470 -194 l0 -65 -65 0 -65 0 0 65 0 65 65 0 65 0 0 -65z
m-1130 -1265 l0 -70 -65 0 -65 0 0 70 0 70 65 0 65 0 0 -70z m637 -145 c103
-31 174 -144 159 -254 -9 -65 -52 -130 -110 -166 l-49 -30 -272 0 -272 0 -48
30 c-149 93 -144 322 10 402 54 29 78 31 306 32 174 1 237 -2 276 -14z m833
-320 l0 -65 -70 0 -70 0 0 65 0 65 70 0 70 0 0 -65z m-470 -135 l0 -70 -65 0
-65 0 0 70 0 70 65 0 65 0 0 -70z m-200 -200 l0 -70 -65 0 -65 0 0 70 0 70 65
0 65 0 0 -70z"/>
<path d="M1899 2651 c-51 -51 -33 -137 33 -160 18 -7 117 -11 240 -11 235 0
259 5 284 66 18 44 10 77 -28 109 l-30 25 -235 0 -235 0 -29 -29z"/>
<path d="M1700 4032 c-160 -165 -251 -317 -314 -529 l-23 -78 421 -3 c231 -1
431 0 442 3 12 2 27 19 34 36 11 27 11 33 -7 57 -18 24 -28 28 -99 32 -84 6
-112 17 -157 59 -43 39 -59 78 -59 141 0 63 16 101 59 142 52 50 89 58 253 58
l150 0 32 29 c27 24 33 36 33 71 0 35 -6 47 -33 71 l-32 29 -292 0 -292 0
-116 -118z"/>
<path d="M3216 4058 c-34 -49 -4 -108 54 -108 65 0 144 -51 177 -114 8 -16 15
-54 15 -86 0 -63 -16 -101 -59 -142 -53 -51 -87 -58 -276 -58 -163 0 -177 -1
-218 -23 -98 -52 -137 -173 -87 -267 36 -66 87 -98 178 -110 121 -17 185 -77
198 -186 3 -32 12 -50 30 -64 23 -19 41 -20 317 -20 l293 0 13 73 c19 103 16
314 -4 419 -49 245 -160 466 -320 635 l-70 73 -113 0 c-105 0 -114 -1 -128
-22z"/>
<path d="M4232 4247 l-31 -32 33 -32 33 -32 31 32 32 33 -33 32 -33 32 -32
-33z"/>
<path d="M902 4117 l-32 -33 33 -32 33 -32 32 33 31 32 -33 32 -33 32 -31 -32z"/>
<path d="M834 2806 c-45 -20 -82 -74 -94 -136 -14 -71 -13 -1239 0 -1311 15
-79 62 -172 112 -221 24 -24 147 -105 273 -182 127 -76 240 -149 253 -163 16
-17 22 -36 22 -69 l0 -44 265 0 265 0 0 318 -1 317 -294 185 c-266 167 -298
185 -336 184 -33 -1 -48 -7 -66 -28 -29 -34 -31 -93 -4 -127 10 -13 118 -91
239 -173 l221 -149 -17 -29 c-9 -16 -26 -40 -38 -55 l-21 -26 -219 148 c-120
81 -232 160 -247 174 -82 75 -97 206 -34 295 l21 29 -58 475 c-32 261 -62 486
-67 501 -15 38 -39 61 -84 82 -47 22 -51 22 -91 5z"/>
<path d="M4275 2801 c-45 -21 -69 -44 -84 -83 -5 -14 -36 -240 -67 -500 l-58
-474 22 -31 c61 -86 45 -221 -35 -294 -15 -14 -127 -93 -247 -174 l-219 -148
-21 26 c-12 15 -29 39 -38 55 l-17 29 221 149 c121 82 229 160 239 173 28 35
25 96 -5 126 -29 29 -71 41 -102 29 -13 -5 -152 -90 -308 -189 l-285 -180 -1
-318 0 -317 263 2 262 3 5 48 c4 28 14 55 25 66 11 10 122 80 247 155 236 142
291 186 339 271 59 102 60 126 57 825 l-3 635 -25 44 c-45 79 -100 103 -165
72z"/>
</g>
</svg>
